<svg width="158" height="158" viewBox="0 0 158 158" fill="none" xmlns="http://www.w3.org/2000/svg">
<path d="M132.904 128.713V155.849H25.1033V128.713C25.1033 110.342 40.7183 98.9612 60.0599 94.5784C71.4849 102.303 86.5224 102.303 97.9474 94.5784C117.289 98.9612 132.904 110.342 132.904 128.713ZM78.9995 36.3345C62.3433 36.3345 48.8365 49.8414 48.8365 66.4975C48.8365 83.1537 62.3433 96.6692 78.9995 96.6692C95.6557 96.6692 109.171 83.1624 109.171 66.4975C109.171 49.8327 95.6643 36.3345 78.9995 36.3345ZM98.8223 32.1791C99.2469 32.4226 99.7508 32.4874 100.223 32.3595C100.696 32.2316 101.098 31.9213 101.342 31.4968L106.591 22.3991C107.098 21.5155 106.8 20.3869 105.917 19.8796C105.033 19.3722 103.905 19.6784 103.397 20.5619L98.14 29.6597C97.8965 30.0843 97.8317 30.5882 97.9596 31.0606C98.0876 31.5331 98.3979 31.9354 98.8223 32.1791ZM107.019 38.4775C107.191 38.6501 107.396 38.7871 107.621 38.8805C107.846 38.974 108.088 39.0221 108.331 39.0221C108.575 39.0221 108.817 38.974 109.042 38.8805C109.267 38.7871 109.471 38.6501 109.644 38.4775L124.498 23.6236C125.224 22.8975 125.224 21.7254 124.498 21.0079C123.78 20.2817 122.608 20.2817 121.882 21.0079L107.019 35.8618C106.302 36.5879 106.302 37.76 107.019 38.4775H107.019ZM117.28 56.2447C117.343 56.4797 117.451 56.7 117.598 56.893C117.746 57.086 117.931 57.2478 118.141 57.369C118.352 57.4902 118.585 57.5685 118.826 57.5992C119.067 57.63 119.312 57.6127 119.546 57.5482L129.694 54.8362C129.929 54.7741 130.149 54.666 130.342 54.5182C130.535 54.3704 130.697 54.1859 130.818 53.9752C130.939 53.7645 131.018 53.5318 131.048 53.2907C131.079 53.0496 131.062 52.8048 130.997 52.5704C130.735 51.5819 129.72 50.9956 128.741 51.2582L118.593 53.9789C117.604 54.2412 117.018 55.2562 117.28 56.2447ZM89.2607 28.225C89.7352 28.3514 90.2404 28.2841 90.6653 28.038C91.0902 27.792 91.4 27.3872 91.5265 26.9128L94.2472 16.7651C94.5095 15.7766 93.9235 14.7619 92.935 14.4993C91.9465 14.2367 90.9318 14.823 90.6692 15.8115L87.9485 25.9592C87.8858 26.1941 87.8701 26.4391 87.9021 26.6801C87.9341 26.9211 88.0133 27.1535 88.1352 27.3639C88.2571 27.5743 88.4192 27.7587 88.6123 27.9064C88.8054 28.0541 89.0257 28.1624 89.2607 28.225ZM130.997 80.4327C131.062 80.1983 131.079 79.9535 131.048 79.7124C131.017 79.4713 130.939 79.2386 130.818 79.0279C130.697 78.8173 130.535 78.6327 130.342 78.4849C130.149 78.3371 129.929 78.229 129.694 78.1669L119.546 75.4462C119.071 75.3198 118.566 75.3871 118.141 75.6331C117.716 75.8792 117.407 76.284 117.28 76.7584C117.217 76.9934 117.202 77.2384 117.234 77.4794C117.266 77.7204 117.345 77.9528 117.467 78.1632C117.589 78.3736 117.751 78.5579 117.944 78.7057C118.137 78.8534 118.357 78.9617 118.592 79.0242L128.74 81.7449C129.72 82.0072 130.735 81.4212 130.997 80.4327ZM115.846 85.6377C114.962 85.1303 113.834 85.4365 113.326 86.32C112.819 87.2036 113.125 88.3322 114.009 88.8395L123.106 94.0883C123.529 94.3311 124.03 94.3966 124.501 94.2703C124.971 94.144 125.373 93.8363 125.617 93.4146C126.124 92.5311 125.827 91.4025 124.943 90.8951L115.846 85.6377ZM123.107 38.9151L114.009 44.1639C113.125 44.6713 112.819 45.7998 113.327 46.6834C113.834 47.5669 114.962 47.8644 115.846 47.3571L124.944 42.1083C125.827 41.6009 126.125 40.4724 125.617 39.5888C125.11 38.7053 123.991 38.4078 123.107 38.9151H123.107ZM78.9995 26.8779C79.4913 26.8776 79.9629 26.682 80.3106 26.3343C80.6584 25.9865 80.8539 25.515 80.8542 25.0231V4.01098C80.8539 3.51918 80.6584 3.04761 80.3106 2.69985C79.9629 2.35209 79.4913 2.15658 78.9995 2.15625C77.9848 2.15625 77.1537 2.98733 77.1537 4.01098V25.0235C77.1537 26.0471 77.9848 26.8779 78.9995 26.8779ZM28.3138 54.8365L38.4614 57.5485C39.4499 57.8198 40.4646 57.2334 40.7272 56.245C40.9898 55.2565 40.4035 54.2418 39.415 53.9792L29.2674 51.2585C28.2789 50.9959 27.2729 51.5822 27.0016 52.5707C26.8752 53.0452 26.9424 53.5504 27.1885 53.9753C27.4346 54.4002 27.8393 54.71 28.3138 54.8365ZM40.7272 76.7587C40.4649 75.7703 39.4502 75.1842 38.4614 75.4465L28.3138 78.1672C27.3253 78.4295 26.7393 79.4446 27.0016 80.433C27.2729 81.4215 28.2789 82.0075 29.2674 81.7452L39.415 79.0245C39.65 78.962 39.8703 78.8537 40.0634 78.706C40.2566 78.5582 40.4187 78.3739 40.5405 78.1635C40.6624 77.9531 40.7416 77.7207 40.7736 77.4797C40.8057 77.2387 40.7899 76.9937 40.7272 76.7587ZM66.4811 26.9131C66.7435 27.9015 67.7582 28.4876 68.7469 28.2253C68.9819 28.1627 69.2022 28.0545 69.3954 27.9067C69.5885 27.759 69.7506 27.5746 69.8725 27.3642C69.9943 27.1538 70.0735 26.9214 70.1055 26.6804C70.1376 26.4394 70.1218 26.1944 70.0591 25.9595L67.3385 15.8118C67.2759 15.5768 67.1677 15.3565 67.02 15.1633C66.8722 14.9702 66.6879 14.8081 66.4775 14.6862C66.2671 14.5643 66.0347 14.4851 65.7936 14.4531C65.5526 14.4211 65.3076 14.4369 65.0727 14.4996C64.0842 14.7619 63.4981 15.7766 63.7605 16.7654L66.4811 26.9131ZM141.495 64.6518H120.482C119.459 64.6518 118.628 65.4828 118.628 66.4975C118.628 66.9894 118.823 67.461 119.171 67.8088C119.519 68.1565 119.99 68.352 120.482 68.3523H141.495C142.518 68.3523 143.34 67.5212 143.34 66.4975C143.34 66.0081 143.146 65.5387 142.8 65.1926C142.454 64.8464 141.984 64.6519 141.495 64.6518ZM39.3801 66.4975C39.3801 65.4828 38.5491 64.6518 37.5254 64.6518H16.5129C15.4893 64.6518 14.6582 65.4828 14.6582 66.4975C14.6584 66.9894 14.8539 67.461 15.2017 67.8088C15.5495 68.1565 16.0211 68.352 16.5129 68.3523H37.5254C38.0172 68.352 38.4889 68.1565 38.8366 67.8088C39.1844 67.461 39.3799 66.9894 39.3801 66.4975ZM56.6662 31.4971C57.1735 32.3807 58.3021 32.6868 59.1857 32.1795C60.0692 31.6721 60.3667 30.5435 59.8594 29.66L54.6105 20.5622C54.1032 19.6787 52.9746 19.3725 52.0911 19.8799C51.2075 20.3872 50.91 21.5158 51.4174 22.3994L56.6662 31.4971ZM48.3643 38.4778C49.0905 39.204 50.2626 39.204 50.9801 38.4778C51.7062 37.7606 51.7062 36.5882 50.9801 35.8621L36.1262 21.0082C35.4 20.282 34.2279 20.282 33.5104 21.0082C32.7843 21.7254 32.7843 22.8978 33.5104 23.6239L48.3643 38.4778ZM34.9013 94.0883L43.9991 88.8395C44.8826 88.3322 45.1888 87.2036 44.6814 86.32C44.1741 85.4365 43.0455 85.1303 42.1619 85.6377L33.0642 90.8951C32.1806 91.4025 31.8831 92.5311 32.3905 93.4146C32.8892 94.2892 34.0178 94.5956 34.9013 94.0883ZM33.0642 42.108L42.1619 47.3568C43.0455 47.8641 44.1741 47.5666 44.6814 46.6831C45.1888 45.7995 44.8826 44.671 43.9991 44.1636L34.9013 38.9148C34.0178 38.4075 32.8892 38.705 32.3908 39.5885C31.8834 40.472 32.1806 41.6006 33.0642 42.108Z" fill="white"/>
</svg>
