<svg width="158" height="158" viewBox="0 0 158 158" fill="none" xmlns="http://www.w3.org/2000/svg">
<g clip-path="url(#clip0_164_2918)">
<path d="M17.0069 111.891C14.0458 108.93 11.4161 105.786 9.08029 102.545C5.02364 105.087 2.01626 107.469 0.551297 108.692C0.266825 108.929 0.0771565 109.261 0.0169283 109.626C-0.0432999 109.992 0.0299306 110.367 0.223247 110.683C3.26766 115.67 16.5134 135.572 35.7906 138.75C44.3128 140.155 52.7659 138.085 59.9345 135.016C47.1415 131.74 30.2523 125.137 17.0069 111.891ZM148.919 102.545C146.583 105.787 143.954 108.93 140.992 111.892C127.747 125.138 110.858 131.741 98.0648 135.016C105.234 138.085 113.687 140.155 122.209 138.75C141.486 135.572 154.732 115.67 157.776 110.683C157.969 110.367 158.043 109.992 157.982 109.626C157.922 109.261 157.733 108.929 157.448 108.692C155.983 107.469 152.976 105.087 148.919 102.545ZM49.2388 54.9272C50.9182 48.2295 53.321 42.0441 55.9476 36.5678C48.5043 29.6788 41.514 25.2487 38.485 23.4653C38.2902 23.3504 38.0725 23.2797 37.8473 23.2583C37.6221 23.2369 37.395 23.2653 37.182 23.3415C36.969 23.4177 36.7754 23.5398 36.6149 23.6991C36.4544 23.8585 36.3309 24.0512 36.2532 24.2637C35.0175 27.6324 32.34 35.7528 30.9794 46.1026C36.921 48.2687 43.1879 51.1363 49.2388 54.9272ZM127.02 46.1026C125.659 35.7528 122.982 27.6324 121.746 24.2637C121.668 24.0512 121.545 23.8584 121.384 23.699C121.224 23.5396 121.03 23.4175 120.817 23.3413C120.604 23.2651 120.377 23.2367 120.152 23.2581C119.927 23.2796 119.709 23.3503 119.514 23.4653C116.485 25.2484 109.495 29.6788 102.052 36.5678C104.678 42.0441 107.081 48.2292 108.761 54.9272C114.811 51.1363 121.078 48.2687 127.02 46.1026ZM46.8252 73.8532C46.8252 70.7727 47.027 67.7508 47.3902 64.7993C29.3786 52.2214 8.01559 49.4189 1.70642 48.848C1.47743 48.827 1.24666 48.8568 1.03044 48.935C0.814221 49.0132 0.617859 49.1381 0.45527 49.3006C0.292682 49.4632 0.167849 49.6596 0.0896192 49.8758C0.0113894 50.092 -0.0183216 50.3228 0.00259233 50.5518C0.674431 57.9726 4.42926 86.221 23.5531 105.345C36.2705 118.062 53.0211 123.982 65.0003 126.719C57.4681 115.792 46.8252 96.3634 46.8252 73.8532ZM156.293 48.848C149.984 49.4189 128.621 52.2214 110.609 64.7996C110.973 67.7508 111.174 70.7727 111.174 73.8532C111.174 96.3637 100.531 115.792 92.9987 126.719C104.978 123.982 121.729 118.062 134.446 105.344C153.57 86.2207 157.325 57.9723 157.997 50.5515C158.018 50.3225 157.988 50.0918 157.91 49.8756C157.831 49.6594 157.707 49.4631 157.544 49.3005C157.381 49.138 157.185 49.0132 156.969 48.935C156.753 48.8568 156.522 48.8271 156.293 48.848ZM101.916 73.8532C101.916 100.457 84.8793 122.718 80.1847 128.347C80.04 128.52 79.8588 128.66 79.654 128.756C79.4492 128.852 79.2257 128.902 78.9995 128.902C78.7733 128.902 78.5499 128.852 78.345 128.756C78.1402 128.66 77.959 128.52 77.8143 128.347C73.1198 122.718 56.0831 100.457 56.0831 73.8532C56.0831 47.2494 73.1201 24.9892 77.8146 19.3602C77.9593 19.1863 78.1405 19.0465 78.3454 18.9505C78.5502 18.8545 78.7736 18.8047 78.9998 18.8047C79.226 18.8047 79.4495 18.8545 79.6543 18.9505C79.8591 19.0465 80.0403 19.1863 80.185 19.3602C84.8793 24.9892 101.916 47.2497 101.916 73.8532Z" fill="white"/>
</g>
<defs>
<clipPath id="clip0_164_2918">
<rect width="158.007" height="158.007" fill="white" transform="translate(-0.00390625)"/>
</clipPath>
</defs>
</svg>
