<svg width="158" height="158" viewBox="0 0 158 158" fill="none" xmlns="http://www.w3.org/2000/svg">
<g clip-path="url(#clip0_164_2934)">
<path d="M70.64 71.1915C68.7519 70.8835 66.8176 71.3094 65.2335 72.3818C61.6279 74.8312 57.5092 76.4221 53.1934 77.0325C55.5424 82.1599 65.0597 84.2666 69.3443 84.2666C70.4259 84.2793 71.4961 84.046 72.4743 83.5843C73.4524 83.1226 74.3128 82.4446 74.9904 81.6016C75.5928 80.8488 76.0135 79.9673 76.22 79.0255C76.4264 78.0838 76.413 77.1071 76.1808 76.1714C75.8395 74.8935 75.1341 73.7423 74.1503 72.8582C73.1666 71.974 71.9469 71.3949 70.64 71.1915Z" fill="white"/>
<path d="M81.6347 125.241L124.576 81.605C129.126 76.9336 131.672 70.6703 131.672 64.1492C131.672 57.6281 129.126 51.3648 124.576 46.6934C122.356 44.4185 119.704 42.6103 116.775 41.3752C113.846 40.1402 110.7 39.5031 107.522 39.5014H107.482C104.289 39.4997 101.128 40.1357 98.1839 41.372C95.24 42.6084 92.5726 44.4202 90.3383 46.7012L82.7619 54.4541C82.2728 54.9552 81.6883 55.3532 81.0428 55.6246C80.3974 55.8959 79.7041 56.0352 79.0039 56.0342C78.3059 56.0366 77.6145 55.8992 76.9704 55.6301C76.3263 55.361 75.7427 54.9656 75.2539 54.4673L67.6037 46.6907C65.3789 44.4121 62.7208 42.6015 59.7859 41.3653C56.851 40.129 53.6985 39.4922 50.5139 39.4922C47.3293 39.4922 44.1768 40.129 41.2419 41.3653C38.307 42.6015 35.649 44.4121 33.4241 46.6907C28.8885 51.3677 26.353 57.6275 26.3555 64.1426C26.3579 70.6577 28.8981 76.9157 33.4373 81.5892L76.3678 125.241V87.4012C74.293 88.7996 71.8465 89.5435 69.3444 89.537C62.4711 89.537 47.3999 85.779 47.3999 74.6158C47.3999 73.9174 47.6773 73.2476 48.1712 72.7537C48.665 72.2598 49.3349 71.9824 50.0333 71.9824C54.4262 71.889 58.6947 70.5061 62.3078 68.0059C64.9883 66.1978 68.2567 65.4784 71.4485 65.9939H71.4801C74.4266 66.4777 77.0983 68.0119 79.0013 70.3128C80.9069 68.0146 83.579 66.4826 86.5251 65.9992H86.5567C89.7441 65.4858 93.0075 66.2021 95.6868 68.0032C99.3021 70.5056 103.573 71.8894 107.969 71.9824C108.668 71.9824 109.338 72.2598 109.831 72.7537C110.325 73.2476 110.603 73.9174 110.603 74.6158C110.603 85.779 95.5315 89.537 88.6582 89.537C86.1561 89.5435 83.7096 88.7996 81.6347 87.4012V125.241ZM40.9374 74.2182C41.1959 74.4611 41.4028 74.7538 41.5454 75.0786C41.6881 75.4035 41.7636 75.7538 41.7675 76.1085C41.7714 76.4633 41.7036 76.8152 41.5681 77.1431C41.4326 77.471 41.2323 77.7681 40.9791 78.0167C40.726 78.2652 40.4252 78.4601 40.0949 78.5895C39.7645 78.7189 39.4114 78.7802 39.0568 78.7698C38.7022 78.7594 38.3533 78.6774 38.0312 78.5288C37.709 78.3802 37.4202 78.168 37.1821 77.905C33.5988 74.2157 31.5959 69.2741 31.5993 64.131C31.6028 58.9879 33.6123 54.0489 37.2005 50.3644C37.6894 49.865 38.3567 49.5803 39.0555 49.5729C39.7543 49.5655 40.4275 49.836 40.9268 50.3249C41.4262 50.8138 41.7109 51.481 41.7183 52.1799C41.7257 52.8787 41.4552 53.5518 40.9663 54.0512C38.3417 56.7498 36.8708 60.3643 36.8654 64.1288C36.86 67.8933 38.3205 71.512 40.9374 74.2182ZM50.1544 50.051C49.4053 50.0821 48.6597 50.1702 47.9239 50.3143C47.7507 50.3508 47.5742 50.3694 47.3972 50.3697C46.7442 50.3703 46.1141 50.1283 45.6295 49.6905C45.1448 49.2528 44.8401 48.6506 44.7745 48.0009C44.7088 47.3511 44.887 46.7001 45.2743 46.1743C45.6616 45.6485 46.2305 45.2854 46.8705 45.1554C47.8713 44.951 48.8865 44.8251 49.9069 44.7788C50.6053 44.7467 51.2879 44.9933 51.8045 45.4645C52.3211 45.9356 52.6294 46.5927 52.6615 47.2911C52.6936 47.9896 52.447 48.6722 51.9758 49.1888C51.5047 49.7053 50.8476 50.0136 50.1492 50.0457L50.1544 50.051Z" fill="white"/>
<path d="M104.808 77.0384C100.489 76.4259 96.3679 74.8323 92.7603 72.3799C91.1777 71.3133 89.248 70.8905 87.3644 71.1974C86.0621 71.4003 84.8465 71.9765 83.8649 72.8561C82.8834 73.7358 82.178 74.8812 81.8341 76.1536C81.5984 77.0925 81.5826 78.0732 81.7882 79.0193C81.9938 79.9653 82.415 80.851 83.0192 81.6075C83.696 82.4495 84.5551 83.1268 85.5318 83.5884C86.5085 84.0501 87.5772 84.284 88.6574 84.2725C92.942 84.2725 102.459 82.1658 104.808 77.0384ZM122.223 138.753C107.81 149.186 90.1116 154.055 72.3908 152.462C54.6699 150.87 38.1224 142.925 25.7998 130.09C13.4773 117.256 6.21082 100.399 5.34058 82.6282C4.47033 64.8573 10.055 47.371 21.0646 33.3942V36.8704C21.0646 37.5688 21.3421 38.2386 21.8359 38.7325C22.3298 39.2264 22.9996 39.5038 23.6981 39.5038C24.3965 39.5038 25.0663 39.2264 25.5602 38.7325C26.0541 38.2386 26.3315 37.5688 26.3315 36.8704V26.3366C26.3315 25.6381 26.0541 24.9683 25.5602 24.4744C25.0663 23.9806 24.3965 23.7031 23.6981 23.7031H13.1642C12.4658 23.7031 11.796 23.9806 11.3021 24.4744C10.8082 24.9683 10.5308 25.6381 10.5308 26.3366C10.5308 27.035 10.8082 27.7048 11.3021 28.1987C11.796 28.6926 12.4658 28.97 13.1642 28.97H17.886C5.74421 43.8192 -0.580636 62.5785 0.0915287 81.748C0.763693 100.918 8.38696 119.188 21.539 133.15C34.6911 147.112 52.4736 155.813 71.5687 157.628C90.6639 159.444 109.767 154.25 125.315 143.017C125.6 142.816 125.841 142.56 126.026 142.265C126.211 141.969 126.336 141.64 126.393 141.297C126.45 140.953 126.438 140.601 126.358 140.262C126.278 139.923 126.131 139.603 125.926 139.321C125.722 139.039 125.463 138.8 125.166 138.619C124.868 138.437 124.538 138.317 124.193 138.264C123.849 138.211 123.498 138.227 123.159 138.311C122.821 138.395 122.503 138.545 122.223 138.753Z" fill="white"/>
<path d="M79.0007 0.000240443C62.3632 -0.0409434 46.1435 5.20943 32.6862 14.9925C32.1204 15.4025 31.7407 16.0204 31.6306 16.7103C31.5205 17.4003 31.6889 18.1057 32.0989 18.6714C32.5089 19.2371 33.1268 19.6168 33.8167 19.727C34.5067 19.8371 35.2121 19.6687 35.7778 19.2587C50.1906 8.82833 67.8885 3.96067 85.6081 5.55328C103.328 7.14588 119.874 15.0914 132.196 27.9246C144.518 40.7578 151.784 57.6133 152.656 75.383C153.527 93.1526 147.944 110.638 136.937 124.615V121.139C136.937 120.441 136.659 119.771 136.165 119.277C135.671 118.783 135.002 118.506 134.303 118.506C133.605 118.506 132.935 118.783 132.441 119.277C131.947 119.771 131.67 120.441 131.67 121.139V131.673C131.67 132.371 131.947 133.041 132.441 133.535C132.935 134.029 133.605 134.306 134.303 134.306H144.837C145.535 134.306 146.205 134.029 146.699 133.535C147.193 133.041 147.47 132.371 147.47 131.673C147.47 130.974 147.193 130.305 146.699 129.811C146.205 129.317 145.535 129.039 144.837 129.039H140.115C149.595 117.469 155.594 103.445 157.415 88.5987C159.236 73.7522 156.804 58.6938 150.402 45.1756C144 31.6574 133.89 20.235 121.25 12.2376C108.61 4.2402 93.9584 -0.00350897 79.0007 0.000240443Z" fill="white"/>
</g>
<defs>
<clipPath id="clip0_164_2934">
<rect width="158.007" height="158.007" fill="white" transform="translate(-0.00390625)"/>
</clipPath>
</defs>
</svg>
